# xmcd
#
# Track frame offsets: 
#        150
#        28170
#        52370
#        74782
#        93112
#        116160
#        138045
#        158342
#        182335
#        206785
#        231497
#        249910
#
# Disc length: 3619 seconds
#
# Revision: 0
# Processed by: cddbd v1.5.2PL0 Copyright (c) Steve Scherf et al.
# Submitted via: ExactAudioCopy v0.99pb3
#
DISCID=a80e210c
DTITLE=John Patrick Nieto And The Blues Kings - Sing That Song To Me
DYEAR=1999
DGENRE=Blues
TTITLE0=God Bless The Child
TTITLE1=Sing That Song To Me
TTITLE2=Rolling Stone
TTITLE3=Loyal To The High
TTITLE4=Seventh Son
TTITLE5=Alligator Mouth
TTITLE6=I'll Take Care Of You
TTITLE7='D' Walking Groove
TTITLE8=Summertime
TTITLE9=Shake It Break It
TTITLE10=Love Is Dangerous
TTITLE11=Latex Rubber Gloves
EXTD=
EXTT0=
EXTT1=
EXTT2=
EXTT3=
EXTT4=
EXTT5=
EXTT6=
EXTT7=
EXTT8=
EXTT9=
EXTT10=
EXTT11=
PLAYORDER=
